<?xml version="1.0" encoding="UTF-8"?>
<svg width="99px" height="66px" viewBox="0 0 99 66" version="1.1" xmlns="http://www.w3.org/2000/svg" xmlns:xlink="http://www.w3.org/1999/xlink">
    <!-- Generator: Sketch 51.1 (57501) - http://www.bohemiancoding.com/sketch -->
    <title>group-13</title>
    <desc>Created with Sketch.</desc>
    <defs>
        <path d="M13.682,29.956 L16.796,29.956 C17.4680034,29.956 18.0529975,29.9260003 18.551,29.866 C19.0490025,29.8059997 19.4599984,29.6830009 19.784,29.497 C20.1080016,29.3109991 20.3509992,29.0470017 20.513,28.705 C20.6750008,28.3629983 20.756,27.9100028 20.756,27.346 C20.756,26.8059973 20.6660009,26.3710017 20.486,26.041 C20.3059991,25.7109984 20.0480017,25.4560009 19.712,25.276 C19.3759983,25.0959991 18.9740023,24.9730003 18.506,24.907 C18.0379977,24.8409997 17.5160029,24.808 16.94,24.808 L13.682,24.808 L13.682,29.956 Z M13.682,23.764 L16.778,23.764 C17.4140032,23.764 17.9479978,23.7100005 18.38,23.602 C18.8120022,23.4939995 19.1599987,23.335001 19.424,23.125 C19.6880013,22.9149989 19.8769994,22.6570015 19.991,22.351 C20.1050006,22.0449985 20.162,21.694002 20.162,21.298 C20.162,20.889998 20.0960007,20.5450014 19.964,20.263 C19.8319993,19.9809986 19.6220014,19.7530009 19.334,19.579 C19.0459986,19.4049991 18.6710023,19.2790004 18.209,19.201 C17.7469977,19.1229996 17.1800034,19.084 16.508,19.084 L13.682,19.084 L13.682,23.764 Z M12.458,31 L12.458,18.04 L17.138,18.04 C17.8940038,18.04 18.5419973,18.1179992 19.082,18.274 C19.6220027,18.4300008 20.0629983,18.6519986 20.405,18.94 C20.7470017,19.2280014 20.9959992,19.572998 21.152,19.975 C21.3080008,20.377002 21.386,20.8179976 21.386,21.298 C21.386,21.7540023 21.3260006,22.1469983 21.206,22.477 C21.0859994,22.8070016 20.930001,23.0829989 20.738,23.305 C20.545999,23.5270011 20.3270012,23.7009994 20.081,23.827 C19.8349988,23.9530006 19.5800013,24.0399998 19.316,24.088 L19.316,24.124 C20.2160045,24.2560007 20.8849978,24.6099971 21.323,25.186 C21.7610022,25.7620029 21.98,26.4819957 21.98,27.346 C21.98,28.0180034 21.8750011,28.5879977 21.665,29.056 C21.454999,29.5240023 21.1640019,29.9019986 20.792,30.19 C20.4199981,30.4780014 19.9730026,30.6849994 19.451,30.811 C18.9289974,30.9370006 18.3620031,31 17.75,31 L12.458,31 Z M23.276,31 L28.37,18.04 L29.756,18.04 L34.724,31 L33.464,31 L31.97,26.932 L26.066,26.932 L24.536,31 L23.276,31 Z M26.48,25.888 L31.556,25.888 L29.018,19.084 L26.48,25.888 Z M37.694,19.696 L37.658,19.696 L37.658,31 L36.434,31 L36.434,18.04 L37.82,18.04 L45.308,29.362 L45.344,29.362 L45.344,18.04 L46.568,18.04 L46.568,31 L45.146,31 L37.694,19.696 Z M58.664,21.802 C58.4119987,20.6979945 57.9440034,19.9120023 57.26,19.444 C56.5759966,18.9759977 55.6820055,18.742 54.578,18.742 C53.7979961,18.742 53.1260028,18.8979984 52.562,19.21 C51.9979972,19.5220016 51.5330018,19.9419974 51.167,20.47 C50.8009982,20.9980026 50.5310009,21.6069965 50.357,22.297 C50.1829991,22.9870034 50.096,23.7159962 50.096,24.484 C50.096,25.2040036 50.1709993,25.9119965 50.321,26.608 C50.4710008,27.3040035 50.7199983,27.9249973 51.068,28.471 C51.4160017,29.0170027 51.8839971,29.4579983 52.472,29.794 C53.0600029,30.1300017 53.7979956,30.298 54.686,30.298 C55.2380028,30.298 55.7419977,30.2080009 56.198,30.028 C56.6540023,29.8479991 57.0529983,29.5990016 57.395,29.281 C57.7370017,28.9629984 58.0249988,28.5880022 58.259,28.156 C58.4930012,27.7239978 58.6699994,27.2500026 58.79,26.734 L60.068,26.734 C59.9239993,27.3580031 59.7140014,27.9489972 59.438,28.507 C59.1619986,29.0650028 58.7990023,29.5539979 58.349,29.974 C57.8989978,30.3940021 57.3530032,30.7269988 56.711,30.973 C56.0689968,31.2190012 55.3160043,31.342 54.452,31.342 C53.455995,31.342 52.6040035,31.1590018 51.896,30.793 C51.1879965,30.4269982 50.6090023,29.9320031 50.159,29.308 C49.7089978,28.6839969 49.382001,27.9610041 49.178,27.139 C48.973999,26.3169959 48.872,25.4440046 48.872,24.52 C48.872,23.2839938 49.0249985,22.2340043 49.331,21.37 C49.6370015,20.5059957 50.0599973,19.8010027 50.6,19.255 C51.1400027,18.7089973 51.7759963,18.3130012 52.508,18.067 C53.2400037,17.8209988 54.0379957,17.698 54.902,17.698 C55.5620033,17.698 56.1769972,17.7849991 56.747,17.959 C57.3170029,18.1330009 57.8209978,18.3939983 58.259,18.742 C58.6970022,19.0900017 59.0569986,19.5189975 59.339,20.029 C59.6210014,20.5390025 59.8159995,21.1299966 59.924,21.802 L58.664,21.802 Z M61.958,24.538 C61.958,23.5899953 62.0869987,22.7020041 62.345,21.874 C62.6030013,21.0459959 62.9839975,20.3230031 63.488,19.705 C63.9920025,19.0869969 64.6159963,18.5980018 65.36,18.238 C66.1040037,17.8779982 66.9619951,17.698 67.934,17.698 C68.942005,17.698 69.8269962,17.8749982 70.589,18.229 C71.3510038,18.5830018 71.9869975,19.0689969 72.497,19.687 C73.0070026,20.3050031 73.3909987,21.0309958 73.649,21.865 C73.9070013,22.6990042 74.036,23.5899953 74.036,24.538 C74.036,25.4740047 73.9070013,26.3529959 73.649,27.175 C73.3909987,27.9970041 73.0100025,28.7169969 72.506,29.335 C72.0019975,29.9530031 71.3720038,30.4419982 70.616,30.802 C69.8599962,31.1620018 68.984005,31.342 67.988,31.342 C66.991995,31.342 66.1160038,31.1620018 65.36,30.802 C64.6039962,30.4419982 63.9740025,29.9530031 63.47,29.335 C62.9659975,28.7169969 62.5880013,27.9970041 62.336,27.175 C62.0839987,26.3529959 61.958,25.4740047 61.958,24.538 Z M68.006,30.298 C68.8460042,30.298 69.568997,30.1390016 70.175,29.821 C70.781003,29.5029984 71.2789981,29.0800026 71.669,28.552 C72.059002,28.0239974 72.3469991,27.4120035 72.533,26.716 C72.7190009,26.0199965 72.812,25.2940038 72.812,24.538 C72.812,23.6379955 72.7010011,22.8310036 72.479,22.117 C72.2569989,21.4029964 71.9360021,20.7940025 71.516,20.29 C71.0959979,19.7859975 70.586003,19.4020013 69.986,19.138 C69.385997,18.8739987 68.7140037,18.742 67.97,18.742 C67.1419959,18.742 66.425003,18.9039984 65.819,19.228 C65.212997,19.5520016 64.715002,19.9809973 64.325,20.515 C63.9349981,21.0490027 63.6470009,21.6639965 63.461,22.36 C63.2749991,23.0560035 63.182,23.7819962 63.182,24.538 C63.182,25.3060038 63.2749991,26.0379965 63.461,26.734 C63.6470009,27.4300035 63.9349981,28.0419974 64.325,28.57 C64.715002,29.0980026 65.212997,29.5179984 65.819,29.83 C66.425003,30.1420016 67.1539957,30.298 68.006,30.298 Z" id="path-1"></path>
        <path d="M18.2216797,40.3470459 C18.2216797,39.7855196 18.0739761,39.385133 17.7785645,39.145874 C17.4831528,38.906615 17.0693386,38.7869873 16.5371094,38.7869873 L14.4350586,38.7869873 L14.4350586,41.9656982 L16.5371094,41.9656982 C17.0693386,41.9656982 17.4831528,41.836305 17.7785645,41.5775146 C18.0739761,41.3187242 18.2216797,40.9085721 18.2216797,40.3470459 Z M20.4555664,40.3323974 C20.4555664,41.6068179 20.133304,42.5076878 19.4887695,43.0350341 C18.8442351,43.5623805 17.9238341,43.8260498 16.7275391,43.8260498 L14.4350586,43.8260498 L14.4350586,47.7078857 L12.1938477,47.7078857 L12.1938477,36.9119873 L16.8959961,36.9119873 C17.9799859,36.9119873 18.8442351,37.1903048 19.4887695,37.7469482 C20.133304,38.3035916 20.4555664,39.1653994 20.4555664,40.3323974 Z M22.1474609,36.9119873 L24.4399414,36.9119873 L24.4399414,43.5477294 C24.4399414,44.2899207 24.5278312,44.8319074 24.7036133,45.173706 C24.9770521,45.7791778 25.5727493,46.0819091 26.4907227,46.0819091 C27.4038132,46.0819091 27.9970689,45.7791778 28.2705078,45.173706 C28.4462899,44.8319074 28.5341797,44.2899207 28.5341797,43.5477294 L28.5341797,36.9119873 L30.8266602,36.9119873 L30.8266602,43.5477294 C30.8266602,44.6951961 30.6484393,45.5887419 30.2919922,46.2283935 C29.6279264,47.4002744 28.3608492,47.986206 26.4907227,47.986206 C24.6205961,47.986206 23.3510776,47.4002744 22.6821289,46.2283935 C22.3256818,45.5887419 22.1474609,44.6951961 22.1474609,43.5477294 L22.1474609,36.9119873 Z M35.2358398,38.7869873 L35.2358398,41.6873779 L37.7919922,41.6873779 C38.2998072,41.6873779 38.6806628,41.6287847 38.9345703,41.5115966 C39.3837913,41.3065175 39.6083984,40.9012481 39.6083984,40.2957763 C39.6083984,39.6414762 39.3911155,39.2020274 38.956543,38.9774169 C38.7124011,38.8504632 38.3461938,38.7869873 37.8579102,38.7869873 L35.2358398,38.7869873 Z M38.3266602,36.9119873 C39.0834999,36.9266358 39.6657694,37.0194083 40.0734863,37.1903076 C40.4812032,37.3612069 40.8266587,37.6126692 41.1098633,37.9447021 C41.3442395,38.218141 41.5297845,38.5208723 41.6665039,38.8529052 C41.8032233,39.1849381 41.871582,39.5633523 41.871582,39.9881591 C41.871582,40.500857 41.7421888,41.0050024 41.4833984,41.5006103 C41.2246081,41.9962183 40.7973663,42.3465565 40.2016602,42.5516357 C40.6997095,42.751832 41.0524892,43.036253 41.2600098,43.4049072 C41.4675303,43.7735614 41.5712891,44.3362999 41.5712891,45.0931396 L41.5712891,45.8182373 C41.5712891,46.3114038 41.5908201,46.6458731 41.6298828,46.8216552 C41.6884769,47.0999769 41.8251942,47.305053 42.0400391,47.4368896 L42.0400391,47.7078857 L39.5571289,47.7078857 C39.4887692,47.4686267 39.4399416,47.2757575 39.4106445,47.1292724 C39.3520505,46.8265365 39.3203125,46.516481 39.3154297,46.1990966 L39.3007812,45.1956787 C39.2910156,44.5071987 39.1652844,44.0482189 38.923584,43.8187255 C38.6818836,43.5892322 38.2290072,43.4744873 37.5649414,43.4744873 L35.2358398,43.4744873 L35.2358398,47.7078857 L33.03125,47.7078857 L33.03125,36.9119873 L38.3266602,36.9119873 Z M49.8916016,40.3470459 C49.8916016,39.7855196 49.743898,39.385133 49.4484863,39.145874 C49.1530747,38.906615 48.7392605,38.7869873 48.2070312,38.7869873 L46.1049805,38.7869873 L46.1049805,41.9656982 L48.2070312,41.9656982 C48.7392605,41.9656982 49.1530747,41.836305 49.4484863,41.5775146 C49.743898,41.3187242 49.8916016,40.9085721 49.8916016,40.3470459 Z M52.1254883,40.3323974 C52.1254883,41.6068179 51.8032259,42.5076878 51.1586914,43.0350341 C50.5141569,43.5623805 49.593756,43.8260498 48.3974609,43.8260498 L46.1049805,43.8260498 L46.1049805,47.7078857 L43.8637695,47.7078857 L43.8637695,36.9119873 L48.565918,36.9119873 C49.6499078,36.9119873 50.5141569,37.1903048 51.1586914,37.7469482 C51.8032259,38.3035916 52.1254883,39.1653994 52.1254883,40.3323974 Z M53.8173828,36.9119873 L56.1098633,36.9119873 L56.1098633,43.5477294 C56.1098633,44.2899207 56.197753,44.8319074 56.3735352,45.173706 C56.646974,45.7791778 57.2426712,46.0819091 58.1606445,46.0819091 C59.073735,46.0819091 59.6669908,45.7791778 59.9404297,45.173706 C60.1162118,44.8319074 60.2041016,44.2899207 60.2041016,43.5477294 L60.2041016,36.9119873 L62.496582,36.9119873 L62.496582,43.5477294 C62.496582,44.6951961 62.3183612,45.5887419 61.9619141,46.2283935 C61.2978482,47.4002744 60.0307711,47.986206 58.1606445,47.986206 C56.290518,47.986206 55.0209994,47.4002744 54.3520508,46.2283935 C53.9956037,45.5887419 53.8173828,44.6951961 53.8173828,43.5477294 L53.8173828,36.9119873 Z M66.9057617,38.7869873 L66.9057617,41.6873779 L69.4619141,41.6873779 C69.9697291,41.6873779 70.3505847,41.6287847 70.6044922,41.5115966 C71.0537132,41.3065175 71.2783203,40.9012481 71.2783203,40.2957763 C71.2783203,39.6414762 71.0610373,39.2020274 70.6264648,38.9774169 C70.382323,38.8504632 70.0161157,38.7869873 69.527832,38.7869873 L66.9057617,38.7869873 Z M69.996582,36.9119873 C70.7534218,36.9266358 71.3356913,37.0194083 71.7434082,37.1903076 C72.1511251,37.3612069 72.4965806,37.6126692 72.7797852,37.9447021 C73.0141613,38.218141 73.1997063,38.5208723 73.3364258,38.8529052 C73.4731452,39.1849381 73.5415039,39.5633523 73.5415039,39.9881591 C73.5415039,40.500857 73.4121107,41.0050024 73.1533203,41.5006103 C72.89453,41.9962183 72.4672881,42.3465565 71.871582,42.5516357 C72.3696314,42.751832 72.7224111,43.036253 72.9299316,43.4049072 C73.1374522,43.7735614 73.2412109,44.3362999 73.2412109,45.0931396 L73.2412109,45.8182373 C73.2412109,46.3114038 73.260742,46.6458731 73.2998047,46.8216552 C73.3583987,47.0999769 73.4951161,47.305053 73.7099609,47.4368896 L73.7099609,47.7078857 L71.2270508,47.7078857 C71.1586911,47.4686267 71.1098634,47.2757575 71.0805664,47.1292724 C71.0219724,46.8265365 70.9902344,46.516481 70.9853516,46.1990966 L70.9707031,45.1956787 C70.9609375,44.5071987 70.8352063,44.0482189 70.5935059,43.8187255 C70.3518054,43.5892322 69.8989291,43.4744873 69.2348633,43.4744873 L66.9057617,43.4744873 L66.9057617,47.7078857 L64.7011719,47.7078857 L64.7011719,36.9119873 L69.996582,36.9119873 Z M78.434082,43.6282959 L81.1733398,43.6282959 L79.8256836,39.380249 L78.434082,43.6282959 Z M78.5732422,36.9119873 L81.1220703,36.9119873 L84.9453125,47.7078857 L82.4990234,47.7078857 L81.8032227,45.4886474 L77.8261719,45.4886474 L77.0791016,47.7078857 L74.7207031,47.7078857 L78.5732422,36.9119873 Z" id="path-2"></path>
    </defs>
    <g id="Page-1" stroke="none" stroke-width="1" fill="none" fill-rule="evenodd">
        <g id="group-13" transform="translate(0.000000, -1.000000)">
            <path d="M99,0.857421875 L99,60.8574219 C99,64.1711304 96.3137085,66.8574219 93,66.8574219 L6,66.8574219 C2.6862915,66.8574219 4.05812251e-16,64.1711304 0,60.8574219 L0,1.04797079 L99,0.857421875 Z" id="path-1" fill="#8251CB"></path>
            <g id="BANCO">
                <use fill="#000000" xlink:href="#path-1"></use>
                <use fill="#FFFFFF" xlink:href="#path-1"></use>
            </g>
            <g id="PURPURA">
                <use fill="#000000" xlink:href="#path-2"></use>
                <use fill="#FFFFFF" xlink:href="#path-2"></use>
            </g>
        </g>
    </g>
</svg>